# xmcd
# 
# Track frame offsets:
#     150
#     26595
#     45295
#     56280
#     78225
#     96182
#     122145
#     144440
#     166255
#     184550
#     207047
#     221100
#     241360
#     255550
# 
# Disc length: 3699
# 
# Revision: 1
# Processed by: cddbd v1.5.2PL0 Copyright (c) Steve Scherf et al.
# Submitted via: fre:ac v1.1beta1pre5
# 
DISCID=b30e710e
DTITLE=Coco d'Or - Coco d'Or 2
DYEAR=2006
DGENRE=J-Jazz
TTITLE0=What A Wonderful World (この素晴らしき世界)
TTITLE1=LaLa Means I Love You (ララは愛の言葉)
TTITLE2=Ay! Cosita Linda (Merecumbe)
TTITLE3=By The Way
TTITLE4=Time After Time
TTITLE5=Just The Two Of Us
TTITLE6=(They Long To Be) Close To You (遥かなる影)
TTITLE7=Easy
TTITLE8=I Will Survive (恋のサヴァイヴァル)
TTITLE9=Killing Me Softly With His Song (やさしく歌って)
TTITLE10=Roda
TTITLE11=Is It You?
TTITLE12=Carnaval
TTITLE13=One Love - People Get Ready
EXTD=YEAR: 2006
EXTT0=
EXTT1=
EXTT2=
EXTT3=
EXTT4=
EXTT5=
EXTT6=
EXTT7=
EXTT8=
EXTT9=
EXTT10=
EXTT11=
EXTT12=
EXTT13=
PLAYORDER=
